<svg xmlns="http://www.w3.org/2000/svg" viewBox="0 0 64 64">
  <rect width="64" height="64" rx="12" fill="#0A0A0A"/>
  <g fill="none" stroke="#FFFFFF" stroke-width="4" stroke-linecap="round">
    <path d="M22 12 H14 a4 4 0 0 0 -4 4 V48 a4 4 0 0 0 4 4 H22"/>
    <path d="M42 12 H50 a4 4 0 0 1 4 4 V48 a4 4 0 0 1 -4 4 H42"/>
    <line x1="20" y1="27" x2="20" y2="37"/>
    <line x1="27" y1="23" x2="27" y2="41"/>
    <line x1="34" y1="18" x2="34" y2="46"/>
    <line x1="41" y1="23" x2="41" y2="41"/>
    <line x1="48" y1="27" x2="48" y2="37"/>
  </g>
</svg>
